<svg width="16" height="16" viewBox="0 0 16 16" fill="none" xmlns="http://www.w3.org/2000/svg">
<path d="M8 9.61533C8.11644 9.61533 8.214 9.576 8.29267 9.49733C8.37089 9.41867 8.41 9.32133 8.41 9.20533C8.41 9.08933 8.37067 8.99178 8.292 8.91267C8.21333 8.83356 8.116 8.79422 8 8.79467C7.884 8.79511 7.78667 8.83444 7.708 8.91267C7.62933 8.99089 7.59 9.08844 7.59 9.20533C7.59 9.32222 7.62933 9.41956 7.708 9.49733C7.78667 9.57511 7.884 9.61444 8 9.61533ZM7.66667 7.64133H8.33333V3.59H7.66667V7.64133ZM2 13.3847V2H14V11.3333H4.05133L2 13.3847ZM3.76667 10.6667H13.3333V2.66667H2.66667V11.7627L3.76667 10.6667Z" fill="#1E1E1E"/>
</svg>
