<svg width="16" height="16" viewBox="0 0 16 16" fill="none" xmlns="http://www.w3.org/2000/svg">
<path d="M7.49935 11.167H8.49935V7.33366H7.49935V11.167ZM7.99935 6.19266C8.15191 6.19266 8.27979 6.14105 8.38302 6.03783C8.48624 5.9346 8.53785 5.80671 8.53785 5.65416C8.53785 5.5016 8.48624 5.37371 8.38302 5.27049C8.27979 5.16738 8.15191 5.11583 7.99935 5.11583C7.84679 5.11583 7.7189 5.16738 7.61568 5.27049C7.51246 5.37371 7.46085 5.5016 7.46085 5.65416C7.46085 5.80671 7.51246 5.9346 7.61568 6.03783C7.7189 6.14105 7.84679 6.19266 7.99935 6.19266ZM8.00052 14.3337C7.12452 14.3337 6.30113 14.1674 5.53035 13.835C4.75957 13.5025 4.08913 13.0514 3.51902 12.4815C2.9489 11.9116 2.49752 11.2414 2.16485 10.471C1.83229 9.70055 1.66602 8.87738 1.66602 8.00149C1.66602 7.12549 1.83224 6.3021 2.16468 5.53133C2.49713 4.76055 2.94829 4.0901 3.51818 3.51999C4.08807 2.94988 4.75824 2.49849 5.52868 2.16583C6.29913 1.83327 7.12229 1.66699 7.99818 1.66699C8.87418 1.66699 9.69757 1.83321 10.4683 2.16566C11.2391 2.4981 11.9096 2.94927 12.4797 3.51916C13.0498 4.08905 13.5012 4.75921 13.8338 5.52966C14.1664 6.3001 14.3327 7.12327 14.3327 7.99916C14.3327 8.87516 14.1665 9.69855 13.834 10.4693C13.5016 11.2401 13.0504 11.9105 12.4805 12.4807C11.9106 13.0508 11.2405 13.5022 10.47 13.8348C9.69957 14.1674 8.87641 14.3337 8.00052 14.3337ZM7.99935 13.3337C9.48824 13.3337 10.7493 12.817 11.7827 11.7837C12.816 10.7503 13.3327 9.48921 13.3327 8.00033C13.3327 6.51144 12.816 5.25033 11.7827 4.21699C10.7493 3.18366 9.48824 2.66699 7.99935 2.66699C6.51046 2.66699 5.24935 3.18366 4.21602 4.21699C3.18268 5.25033 2.66602 6.51144 2.66602 8.00033C2.66602 9.48921 3.18268 10.7503 4.21602 11.7837C5.24935 12.817 6.51046 13.3337 7.99935 13.3337Z" fill="#4F4F4F"/>
</svg>
