<svg width="22" height="18" viewBox="0 0 22 18" fill="none" xmlns="http://www.w3.org/2000/svg">
<path d="M21 11.7572V8.8125C21.0016 8.48962 20.8982 8.17496 20.7054 7.91592C20.5127 7.65688 20.241 7.46748 19.9313 7.37625L19.9116 7.37063L16.5 6.44156V3C16.5 2.80109 16.421 2.61032 16.2803 2.46967C16.1397 2.32902 15.9489 2.25 15.75 2.25C15.5511 2.25 15.3603 2.32902 15.2197 2.46967C15.079 2.61032 15 2.80109 15 3V6.03562L12.75 5.42625V1.5H13.5C13.6989 1.5 13.8897 1.42098 14.0303 1.28033C14.171 1.13968 14.25 0.948912 14.25 0.75C14.25 0.551088 14.171 0.360322 14.0303 0.21967C13.8897 0.0790178 13.6989 0 13.5 0H2.25C2.05109 0 1.86032 0.0790178 1.71967 0.21967C1.57902 0.360322 1.5 0.551088 1.5 0.75C1.5 0.948912 1.57902 1.13968 1.71967 1.28033C1.86032 1.42098 2.05109 1.5 2.25 1.5H3V4.5H2.25C2.05109 4.5 1.86032 4.57902 1.71967 4.71967C1.57902 4.86032 1.5 5.05109 1.5 5.25C1.5 5.44891 1.57902 5.63968 1.71967 5.78033C1.86032 5.92098 2.05109 6 2.25 6H4.875C6.56522 6.00174 8.18572 6.67394 9.38089 7.86911C10.5761 9.06428 11.2483 10.6848 11.25 12.375V13.5C11.25 13.6989 11.329 13.8897 11.4697 14.0303C11.6103 14.171 11.8011 14.25 12 14.25H15.0216C15.079 14.7712 15.2572 15.2718 15.5418 15.7122C15.8265 16.1526 16.2098 16.5205 16.6615 16.7869C17.1131 17.0534 17.6206 17.2109 18.1437 17.247C18.6668 17.2831 19.1911 17.1969 19.6751 16.9951C20.1591 16.7933 20.5894 16.4815 20.9318 16.0844C21.2743 15.6874 21.5196 15.216 21.6482 14.7076C21.7768 14.1993 21.7851 13.668 21.6726 13.1559C21.5601 12.6437 21.3298 12.1648 21 11.7572ZM4.875 4.5H4.5V1.5H11.25V7.75969C10.521 6.7508 9.56304 5.92927 8.45481 5.36261C7.34658 4.79594 6.11971 4.50031 4.875 4.5ZM12.75 6.97969L19.5 8.8125V10.6969C18.6566 10.3984 17.7292 10.4469 16.9216 10.8319C16.114 11.2169 15.4923 11.9068 15.1931 12.75H12.75V6.97969ZM18.375 15.75C18.0042 15.75 17.6417 15.64 17.3333 15.434C17.025 15.228 16.7846 14.9351 16.6427 14.5925C16.5008 14.2499 16.4637 13.8729 16.536 13.5092C16.6084 13.1455 16.787 12.8114 17.0492 12.5492C17.3114 12.287 17.6455 12.1084 18.0092 12.036C18.3729 11.9637 18.7499 12.0008 19.0925 12.1427C19.4351 12.2846 19.728 12.525 19.934 12.8333C20.14 13.1416 20.25 13.5042 20.25 13.875C20.25 14.3723 20.0525 14.8492 19.7008 15.2008C19.3492 15.5525 18.8723 15.75 18.375 15.75ZM4.875 7.5C3.91082 7.5 2.96829 7.78591 2.1666 8.32159C1.36491 8.85726 0.740067 9.61863 0.371089 10.5094C0.00211226 11.4002 -0.094429 12.3804 0.093674 13.3261C0.281777 14.2717 0.746076 15.1404 1.42786 15.8221C2.10964 16.5039 2.97828 16.9682 3.92394 17.1563C4.86959 17.3444 5.84979 17.2479 6.74058 16.8789C7.63137 16.5099 8.39274 15.8851 8.92842 15.0834C9.46409 14.2817 9.75 13.3392 9.75 12.375C9.74851 11.0825 9.23442 9.84342 8.3205 8.9295C7.40659 8.01558 6.16748 7.50149 4.875 7.5ZM4.875 15.75C4.20749 15.75 3.55497 15.5521 2.99995 15.1812C2.44494 14.8104 2.01235 14.2833 1.75691 13.6666C1.50146 13.0499 1.43463 12.3713 1.56485 11.7166C1.69508 11.0619 2.01651 10.4605 2.48852 9.98851C2.96052 9.51651 3.56189 9.19507 4.21657 9.06485C4.87126 8.93462 5.54986 9.00146 6.16656 9.25691C6.78326 9.51235 7.31036 9.94493 7.68121 10.4999C8.05206 11.055 8.25 11.7075 8.25 12.375C8.25 13.2701 7.89442 14.1285 7.26149 14.7615C6.62855 15.3944 5.77011 15.75 4.875 15.75ZM6 12.375C6 12.5975 5.93402 12.815 5.81041 13C5.68679 13.185 5.51109 13.3292 5.30552 13.4144C5.09995 13.4995 4.87375 13.5218 4.65553 13.4784C4.4373 13.435 4.23684 13.3278 4.07951 13.1705C3.92217 13.0132 3.81503 12.8127 3.77162 12.5945C3.72821 12.3762 3.75049 12.15 3.83564 11.9445C3.92079 11.7389 4.06498 11.5632 4.24999 11.4396C4.43499 11.316 4.6525 11.25 4.875 11.25C5.17337 11.25 5.45952 11.3685 5.6705 11.5795C5.88148 11.7905 6 12.0766 6 12.375Z" fill="currentColor"/>

</svg>
