<svg width="11" height="11" viewBox="0 0 11 11" fill="none" xmlns="http://www.w3.org/2000/svg">
<path d="M1 8.5V3V8.5C1 8.33333 1 8.27083 1 8.3125C1 8.35417 1 8.41667 1 8.5ZM1 9.5C0.725 9.5 0.489583 9.40208 0.29375 9.20625C0.0979166 9.01042 0 8.775 0 8.5V3C0 2.725 0.0979166 2.48958 0.29375 2.29375C0.489583 2.09792 0.725 2 1 2H3V1C3 0.725 3.09792 0.489583 3.29375 0.29375C3.48958 0.0979166 3.725 0 4 0H6C6.275 0 6.51042 0.0979166 6.70625 0.29375C6.90208 0.489583 7 0.725 7 1V2H9C9.275 2 9.51042 2.09792 9.70625 2.29375C9.90208 2.48958 10 2.725 10 3V5.1375C9.85 5.02917 9.69167 4.93542 9.525 4.85625C9.35833 4.77708 9.18333 4.70833 9 4.65V3H1V8.5H4.5375C4.5625 8.675 4.6 8.84583 4.65 9.0125C4.7 9.17917 4.7625 9.34167 4.8375 9.5H1ZM4 2H6V1H4V2ZM8 10.5C7.30833 10.5 6.71875 10.2563 6.23125 9.76875C5.74375 9.28125 5.5 8.69167 5.5 8C5.5 7.30833 5.74375 6.71875 6.23125 6.23125C6.71875 5.74375 7.30833 5.5 8 5.5C8.69167 5.5 9.28125 5.74375 9.76875 6.23125C10.2563 6.71875 10.5 7.30833 10.5 8C10.5 8.69167 10.2563 9.28125 9.76875 9.76875C9.28125 10.2563 8.69167 10.5 8 10.5ZM8.25 7.9V6.5H7.75V8.1L8.825 9.175L9.175 8.825L8.25 7.9Z" fill="#475569"/>
</svg>
