<svg width="24" height="24" viewBox="0 0 24 24" fill="none" xmlns="http://www.w3.org/2000/svg">
<path d="M5.86525 19.6151C4.58842 19.6151 3.5 19.1651 2.6 18.2651C1.7 17.3651 1.25 16.2767 1.25 14.9998C1.25 13.723 1.70067 12.6346 2.602 11.7346C3.50317 10.8346 4.59092 10.3846 5.86525 10.3846C7.13975 10.3846 8.22758 10.8346 9.12875 11.7346C10.0301 12.6346 10.4808 13.723 10.4808 14.9998C10.4808 16.2767 10.0308 17.3651 9.13075 18.2651C8.23075 19.1651 7.14225 19.6151 5.86525 19.6151ZM5.863 16.3076C5.49917 16.3076 5.19067 16.1802 4.9375 15.9253C4.68433 15.6707 4.55775 15.3614 4.55775 14.9976C4.55775 14.6337 4.68508 14.3252 4.93975 14.0721C5.19442 13.8187 5.50375 13.6921 5.86775 13.6921C6.23158 13.6921 6.54008 13.8195 6.79325 14.0743C7.04642 14.329 7.173 14.6382 7.173 15.0021C7.173 15.3659 7.04567 15.6744 6.791 15.9276C6.53633 16.1809 6.227 16.3076 5.863 16.3076ZM19.5 19.6151C18.5975 19.6151 17.8302 19.2991 17.198 18.6671C16.566 18.0351 16.25 17.2677 16.25 16.3651C16.25 15.4626 16.566 14.6953 17.198 14.0633C17.8302 13.4313 18.5975 13.1153 19.5 13.1153C20.4025 13.1153 21.1698 13.4313 21.802 14.0633C22.434 14.6953 22.75 15.4626 22.75 16.3651C22.75 17.2677 22.434 18.0351 21.802 18.6671C21.1698 19.2991 20.4025 19.6151 19.5 19.6151ZM3.84625 9.13457C3.63375 9.13457 3.45558 9.06265 3.31175 8.91882C3.16808 8.77499 3.09625 8.59674 3.09625 8.38407C3.09625 8.17157 3.16808 7.99349 3.31175 7.84982C3.45558 7.70632 3.63375 7.63457 3.84625 7.63457H6.90375C7.33842 7.63457 7.71633 7.77907 8.0375 8.06807C8.35867 8.35724 8.54483 8.71274 8.596 9.13457H3.84625ZM8.072 17.2066C8.67783 16.6007 8.98075 15.8652 8.98075 14.9998C8.98075 14.1345 8.67783 13.3989 8.072 12.7931C7.46633 12.1872 6.73075 11.8843 5.86525 11.8843C4.99992 11.8843 4.26442 12.1872 3.65875 12.7931C3.05292 13.3989 2.75 14.1345 2.75 14.9998C2.75 15.8652 3.05292 16.6007 3.65875 17.2066C4.26442 17.8124 4.99992 18.1153 5.86525 18.1153C6.73075 18.1153 7.46633 17.8124 8.072 17.2066ZM20.7355 17.6008C21.0785 17.2578 21.25 16.8459 21.25 16.3651C21.25 15.8844 21.0785 15.4726 20.7355 15.1296C20.3927 14.7866 19.9808 14.6151 19.5 14.6151C19.0192 14.6151 18.6073 14.7866 18.2645 15.1296C17.9215 15.4726 17.75 15.8844 17.75 16.3651C17.75 16.8459 17.9215 17.2578 18.2645 17.6008C18.6073 17.9438 19.0192 18.1153 19.5 18.1153C19.9808 18.1153 20.3927 17.9438 20.7355 17.6008ZM11.2942 15.7498H15.425C15.6173 14.6908 16.1107 13.8479 16.905 13.2211C17.6993 12.5941 18.5958 12.2806 19.5943 12.2806C19.9156 12.2806 20.2338 12.3197 20.5487 12.3978C20.8636 12.4762 21.1742 12.5967 21.4807 12.7593V8.19207C21.4807 7.69507 21.3038 7.26957 20.9498 6.91557C20.5958 6.56157 20.1702 6.38457 19.673 6.38457H13.95L12.9 5.28457L14.3 3.88457L13.6 3.18457L10.05 6.73457L10.8 7.43457L12.2 6.03457L13.25 7.08457V8.99982C13.25 9.65565 13.0165 10.2171 12.5495 10.6841C12.0825 11.1511 11.5211 11.3846 10.8652 11.3846H9.998C10.4403 11.8896 10.7778 12.4517 11.0105 13.0711C11.2432 13.6902 11.3563 14.3363 11.35 15.0093C11.35 15.1333 11.3458 15.2573 11.3375 15.3813C11.3292 15.5052 11.3147 15.628 11.2942 15.7498Z" fill="#CF3131"/>
</svg>
