<svg width="19" height="19" viewBox="0 0 19 19" fill="none" xmlns="http://www.w3.org/2000/svg">
<path d="M3.06445 15.9081V2.47461L4.03662 3.21106L5.06777 2.47461L6.09873 3.21106L7.12988 2.47461L8.16084 3.21106L9.19199 2.47461L10.2231 3.21106L11.2541 2.47461L12.2852 3.21106L13.3162 2.47461L14.3473 3.21106L15.3195 2.47461V15.9081L14.3473 15.1716L13.3162 15.9081L12.2852 15.1716L11.2541 15.9081L10.2231 15.1716L9.19199 15.9081L8.16084 15.1716L7.12988 15.9081L6.09873 15.1716L5.06777 15.9081L4.03662 15.1716L3.06445 15.9081ZM4.97931 12.1666H13.4047V11.4007H4.97931V12.1666ZM4.97931 9.57432H13.4047V8.80837H4.97931V9.57432ZM4.97931 6.98199H13.4047V6.21604H4.97931V6.98199ZM3.83039 14.6295H14.5536V3.75316H3.83039V14.6295Z" fill="#111827"/>
</svg>
