<svg width="16" height="16" viewBox="0 0 16 16" fill="none" xmlns="http://www.w3.org/2000/svg">
<path d="M3.53915 14.3333C3.20237 14.3333 2.91732 14.2167 2.68398 13.9833C2.45065 13.75 2.33398 13.465 2.33398 13.1282V4.20518C2.33398 3.8684 2.45065 3.58334 2.68398 3.35001C2.91732 3.11668 3.20237 3.00001 3.53915 3.00001H4.46215V1.58984H5.48782V3.00001H10.5392V1.58984H11.5392V3.00001H12.4622C12.7989 3.00001 13.084 3.11668 13.3173 3.35001C13.5507 3.58334 13.6673 3.8684 13.6673 4.20518V8.52568L12.6673 9.52568V6.87184H3.33398V13.1282C3.33398 13.1795 3.35537 13.2265 3.39815 13.2692C3.44082 13.312 3.48782 13.3333 3.53915 13.3333H7.58915L8.59548 14.3333H3.53915ZM3.33398 5.87184H12.6673V4.20518C12.6673 4.15384 12.6459 4.10684 12.6032 4.06418C12.5605 4.0214 12.5135 4.00001 12.4622 4.00001H3.53915C3.48782 4.00001 3.44082 4.0214 3.39815 4.06418C3.35537 4.10684 3.33398 4.15384 3.33398 4.20518V5.87184ZM11.0083 14.6667L8.91098 12.5757L9.61348 11.8732L10.9982 13.2577L13.7673 10.4885L14.4698 11.2013L11.0083 14.6667Z" fill="#4F4F4F"/>
</svg>
