<svg width="16" height="16" viewBox="0 0 16 16" fill="none" xmlns="http://www.w3.org/2000/svg">
<path d="M13.5993 4.8205C13.5993 3.95817 13.3004 3.22806 12.7025 2.63017C12.1046 2.03228 11.3745 1.73333 10.5122 1.73333V1C11.572 1 12.4737 1.37178 13.2174 2.11533C13.9609 2.859 14.3327 3.76072 14.3327 4.8205H13.5993ZM11.8327 4.8205C11.8327 4.45817 11.7032 4.1475 11.4442 3.8885C11.1852 3.6295 10.8745 3.5 10.5122 3.5V2.76667C11.0805 2.76667 11.5615 2.96517 11.955 3.36217C12.3487 3.75917 12.5523 4.24528 12.566 4.8205H11.8327ZM2.87118 13.6667C2.5344 13.6667 2.24935 13.55 2.01602 13.3167C1.78268 13.0833 1.66602 12.7983 1.66602 12.4615V4.87183C1.66602 4.53506 1.78268 4.25 2.01602 4.01667C2.24935 3.78333 2.5344 3.66667 2.87118 3.66667H4.90702L6.14035 2.33333H9.84552V3.33333H6.57635L5.35318 4.66667H2.87118C2.81129 4.66667 2.76213 4.68589 2.72368 4.72433C2.68524 4.76278 2.66602 4.81194 2.66602 4.87183V12.4615C2.66602 12.5214 2.68524 12.5706 2.72368 12.609C2.76213 12.6474 2.81129 12.6667 2.87118 12.6667H13.1275C13.1874 12.6667 13.2366 12.6474 13.275 12.609C13.3135 12.5706 13.3327 12.5214 13.3327 12.4615V5.48717H14.3327V12.4615C14.3327 12.7983 14.216 13.0833 13.9827 13.3167C13.7493 13.55 13.4643 13.6667 13.1275 13.6667H2.87118ZM7.99935 11.4102C8.76435 11.4102 9.41285 11.1442 9.94485 10.6122C10.4768 10.0802 10.7428 9.43167 10.7428 8.66667C10.7428 7.90167 10.4768 7.25317 9.94485 6.72117C9.41285 6.18917 8.76435 5.92317 7.99935 5.92317C7.23435 5.92317 6.58585 6.18917 6.05385 6.72117C5.52185 7.25317 5.25585 7.90167 5.25585 8.66667C5.25585 9.43167 5.52185 10.0802 6.05385 10.6122C6.58585 11.1442 7.23435 11.4102 7.99935 11.4102ZM7.99935 10.4103C7.50702 10.4103 7.09335 10.2428 6.75835 9.90767C6.42324 9.57267 6.25568 9.159 6.25568 8.66667C6.25568 8.17433 6.42324 7.76067 6.75835 7.42567C7.09335 7.09056 7.50702 6.923 7.99935 6.923C8.49168 6.923 8.90535 7.09056 9.24035 7.42567C9.57546 7.76067 9.74302 8.17433 9.74302 8.66667C9.74302 9.159 9.57546 9.57267 9.24035 9.90767C8.90535 10.2428 8.49168 10.4103 7.99935 10.4103Z" fill="#22683D"/>
</svg>
