<svg width="14" height="14" viewBox="0 0 14 14" fill="none" xmlns="http://www.w3.org/2000/svg">
<path d="M2.67333 9.42411L1.42733 1.33345H0.666667C0.489856 1.33345 0.320286 1.26321 0.195262 1.13818C0.0702379 1.01316 0 0.843591 0 0.66678C0 0.489969 0.0702379 0.320399 0.195262 0.195375C0.320286 0.0703508 0.489856 0.000112885 0.666667 0.000112885H1.99C2.15083 -0.00285628 2.30724 0.0528346 2.43 0.156779C2.556 0.262737 2.6382 0.411688 2.66067 0.57478L2.87933 2.00011H8V3.33345H3.08467L3.90467 8.66678H10.1707L11.1707 5.33345H12.5627L11.3053 9.52478C11.2642 9.66217 11.1798 9.78262 11.0647 9.86825C10.9497 9.95388 10.8101 10.0001 10.6667 10.0001H3.344C3.17861 10.0032 3.01808 9.94418 2.894 9.83478C2.77308 9.72909 2.69446 9.58323 2.67267 9.42411H2.67333ZM5.33333 12.0001C5.33333 12.3537 5.19286 12.6929 4.94281 12.9429C4.69276 13.193 4.35362 13.3334 4 13.3334C3.64638 13.3334 3.30724 13.193 3.05719 12.9429C2.80714 12.6929 2.66667 12.3537 2.66667 12.0001C2.66667 11.6465 2.80714 11.3074 3.05719 11.0573C3.30724 10.8073 3.64638 10.6668 4 10.6668C4.35362 10.6668 4.69276 10.8073 4.94281 11.0573C5.19286 11.3074 5.33333 11.6465 5.33333 12.0001ZM11.3333 12.0001C11.3333 12.3537 11.1929 12.6929 10.9428 12.9429C10.6928 13.193 10.3536 13.3334 10 13.3334C9.64638 13.3334 9.30724 13.193 9.05719 12.9429C8.80714 12.6929 8.66667 12.3537 8.66667 12.0001C8.66667 11.6465 8.80714 11.3074 9.05719 11.0573C9.30724 10.8073 9.64638 10.6668 10 10.6668C10.3536 10.6668 10.6928 10.8073 10.9428 11.0573C11.1929 11.3074 11.3333 11.6465 11.3333 12.0001ZM11.3333 0.000112885C11.5101 0.000112885 11.6797 0.0703508 11.8047 0.195375C11.9298 0.320399 12 0.489969 12 0.66678V1.33345H12.6667C12.8435 1.33345 13.013 1.40368 13.1381 1.52871C13.2631 1.65373 13.3333 1.8233 13.3333 2.00011C13.3333 2.17692 13.2631 2.34649 13.1381 2.47152C13.013 2.59654 12.8435 2.66678 12.6667 2.66678H12V3.33345C12 3.51026 11.9298 3.67983 11.8047 3.80485C11.6797 3.92987 11.5101 4.00011 11.3333 4.00011C11.1565 4.00011 10.987 3.92987 10.8619 3.80485C10.7369 3.67983 10.6667 3.51026 10.6667 3.33345V2.66678H10C9.82319 2.66678 9.65362 2.59654 9.52859 2.47152C9.40357 2.34649 9.33333 2.17692 9.33333 2.00011C9.33333 1.8233 9.40357 1.65373 9.52859 1.52871C9.65362 1.40368 9.82319 1.33345 10 1.33345H10.6667V0.66678C10.6667 0.489969 10.7369 0.320399 10.8619 0.195375C10.987 0.0703508 11.1565 0.000112885 11.3333 0.000112885Z" fill="#1D653D"/>
</svg>
