<svg width="16" height="16" viewBox="0 0 16 16" fill="none" xmlns="http://www.w3.org/2000/svg">
<path d="M8.00065 9.026C8.28198 9.026 8.51887 8.92956 8.71132 8.73667C8.90376 8.54378 9.00021 8.30689 9.00065 8.026C9.0011 7.74511 8.90465 7.508 8.71132 7.31467C8.51887 7.12222 8.28198 7.026 8.00065 7.026C7.71932 7.026 7.48243 7.12222 7.28998 7.31467C7.09754 7.50711 7.0011 7.74422 7.00065 8.026C7.00021 8.30778 7.09665 8.54467 7.28998 8.73667C7.48243 8.92956 7.71932 9.026 8.00065 9.026ZM5.66732 11.282H10.334V11.1807C10.334 10.974 10.2789 10.798 10.1687 10.6527C10.0584 10.5073 9.90954 10.3918 9.72198 10.306C9.45932 10.1927 9.18376 10.1047 8.89532 10.042C8.60643 9.97978 8.30821 9.94867 8.00065 9.94867C7.6931 9.94867 7.3951 9.97978 7.10665 10.042C6.81821 10.1042 6.54221 10.1922 6.27865 10.306C6.09198 10.3918 5.94332 10.5073 5.83265 10.6527C5.72243 10.798 5.66732 10.974 5.66732 11.1807V11.282ZM11.5907 14H4.41065C4.10398 14 3.84798 13.8973 3.64265 13.692C3.43732 13.4867 3.33443 13.2304 3.33398 12.9233V3.07667C3.33398 2.77 3.43687 2.514 3.64265 2.30867C3.84843 2.10333 4.10465 2.00044 4.41132 2H8.60465C8.74821 2 8.88776 2.02889 9.02332 2.08667C9.15887 2.14533 9.27487 2.22289 9.37132 2.31933L12.348 5.296C12.4449 5.39289 12.5222 5.50889 12.58 5.644C12.6382 5.77956 12.6673 5.91911 12.6673 6.06267V12.9227C12.6673 13.2298 12.5647 13.4862 12.3593 13.692C12.154 13.8978 11.8982 14.0004 11.5907 14ZM11.59 13.3333C11.6927 13.3333 11.7869 13.2907 11.8727 13.2053C11.9584 13.12 12.0011 13.0258 12.0007 12.9227V5.9L8.76732 2.66667H4.41132C4.30865 2.66667 4.21443 2.70933 4.12865 2.79467C4.04287 2.88 4.00021 2.974 4.00065 3.07667V12.9233C4.00065 13.0256 4.04332 13.1196 4.12865 13.2053C4.21398 13.2911 4.30798 13.3338 4.41065 13.3333H11.59Z" fill="#1E1E1E"/>
</svg>
