<svg width="14" height="14" viewBox="0 0 14 14" fill="none" xmlns="http://www.w3.org/2000/svg">
<path d="M6.3 13.6V12.4462C4.91111 12.3034 3.74189 11.7572 2.79233 10.8077C1.84278 9.85811 1.29661 8.68889 1.15383 7.3H0V6.3H1.15383C1.29661 4.91111 1.84278 3.74189 2.79233 2.79233C3.74189 1.84278 4.91111 1.29661 6.3 1.15383V0H7.3V1.15383C8.68889 1.29661 9.85811 1.84278 10.8077 2.79233C11.7572 3.74189 12.3034 4.91111 12.4462 6.3H13.6V7.3H12.4462C12.3034 8.68889 11.7572 9.85811 10.8077 10.8077C9.85811 11.7572 8.68889 12.3034 7.3 12.4462V13.6H6.3ZM6.8 11.4667C8.08889 11.4667 9.18889 11.0111 10.1 10.1C11.0111 9.18889 11.4667 8.08889 11.4667 6.8C11.4667 5.51111 11.0111 4.41111 10.1 3.5C9.18889 2.58889 8.08889 2.13333 6.8 2.13333C5.51111 2.13333 4.41111 2.58889 3.5 3.5C2.58889 4.41111 2.13333 5.51111 2.13333 6.8C2.13333 8.08889 2.58889 9.18889 3.5 10.1C4.41111 11.0111 5.51111 11.4667 6.8 11.4667ZM6.8 9.13333C6.15833 9.13333 5.60906 8.90483 5.15217 8.44783C4.69517 7.99094 4.46667 7.44167 4.46667 6.8C4.46667 6.15833 4.69517 5.60906 5.15217 5.15217C5.60906 4.69517 6.15833 4.46667 6.8 4.46667C7.44167 4.46667 7.99094 4.69517 8.44783 5.15217C8.90483 5.60906 9.13333 6.15833 9.13333 6.8C9.13333 7.44167 8.90483 7.99094 8.44783 8.44783C7.99094 8.90483 7.44167 9.13333 6.8 9.13333Z" fill="#088E85"/>
</svg>
