<svg width="16" height="16" viewBox="0 0 16 16" fill="none" xmlns="http://www.w3.org/2000/svg">
<path d="M3.33366 13.3333V12H4.40033L5.71699 7.61667C5.80588 7.32778 5.96988 7.09733 6.20899 6.92533C6.4481 6.75333 6.71188 6.66711 7.00033 6.66667H9.00033C9.28922 6.66667 9.55321 6.75289 9.79233 6.92533C10.0314 7.09778 10.1952 7.32822 10.2837 7.61667L11.6003 12H12.667V13.3333H3.33366ZM5.80033 12H10.2003L9.00033 8H7.00033L5.80033 12ZM7.33366 5.33333V2H8.66699V5.33333H7.33366ZM11.3003 6.98333L10.3503 6.03333L12.717 3.68333L13.6503 4.61667L11.3003 6.98333ZM12.0003 10V8.66667H15.3337V10H12.0003ZM4.70033 6.98333L2.35033 4.61667L3.28366 3.68333L5.65033 6.03333L4.70033 6.98333ZM0.666992 10V8.66667H4.00033V10H0.666992Z" fill="white"/>
</svg>
