<svg width="16" height="16" viewBox="0 0 16 16" fill="none" xmlns="http://www.w3.org/2000/svg">
<path d="M7.99202 11.7438C8.18235 11.7438 8.34313 11.6782 8.47435 11.5468C8.60557 11.4154 8.67118 11.2544 8.67118 11.064C8.67118 10.8737 8.60546 10.7129 8.47402 10.5817C8.34257 10.4505 8.18168 10.385 7.99135 10.385C7.80102 10.385 7.64024 10.4507 7.50902 10.5822C7.37779 10.7136 7.31218 10.8745 7.31218 11.0648C7.31218 11.2552 7.3779 11.4159 7.50935 11.5472C7.64079 11.6783 7.80168 11.7438 7.99202 11.7438ZM7.51985 9.35666H8.45835C8.46691 9.02855 8.51496 8.76638 8.60252 8.57016C8.69018 8.37405 8.90279 8.11405 9.24035 7.79016C9.53357 7.49694 9.75813 7.22616 9.91402 6.97783C10.07 6.7296 10.148 6.43644 10.148 6.09833C10.148 5.52444 9.94185 5.07616 9.52952 4.75349C9.11707 4.43094 8.62924 4.26966 8.06602 4.26966C7.50957 4.26966 7.04913 4.41816 6.68468 4.71516C6.32013 5.01216 6.06007 5.36194 5.90452 5.76449L6.76085 6.10799C6.84207 5.88666 6.98096 5.67105 7.17752 5.46116C7.37407 5.25138 7.66596 5.14649 8.05318 5.14649C8.44718 5.14649 8.73841 5.25438 8.92685 5.47016C9.11541 5.68605 9.20968 5.92344 9.20968 6.18233C9.20968 6.40888 9.14513 6.61616 9.01602 6.80416C8.88702 6.99216 8.72252 7.17377 8.52252 7.34899C8.08485 7.74388 7.80835 8.05888 7.69302 8.29399C7.57757 8.52899 7.51985 8.88321 7.51985 9.35666ZM8.00052 14.3337C7.12452 14.3337 6.30113 14.1674 5.53035 13.835C4.75957 13.5025 4.08913 13.0514 3.51902 12.4815C2.9489 11.9116 2.49752 11.2414 2.16485 10.471C1.83229 9.70055 1.66602 8.87738 1.66602 8.00149C1.66602 7.12549 1.83224 6.3021 2.16468 5.53133C2.49713 4.76055 2.94829 4.0901 3.51818 3.51999C4.08807 2.94988 4.75824 2.49849 5.52868 2.16583C6.29913 1.83327 7.12229 1.66699 7.99818 1.66699C8.87418 1.66699 9.69757 1.83321 10.4683 2.16566C11.2391 2.4981 11.9096 2.94927 12.4797 3.51916C13.0498 4.08905 13.5012 4.75921 13.8338 5.52966C14.1664 6.3001 14.3327 7.12327 14.3327 7.99916C14.3327 8.87516 14.1665 9.69855 13.834 10.4693C13.5016 11.2401 13.0504 11.9105 12.4805 12.4807C11.9106 13.0508 11.2405 13.5022 10.47 13.8348C9.69957 14.1674 8.87641 14.3337 8.00052 14.3337ZM7.99935 13.3337C9.48824 13.3337 10.7493 12.817 11.7827 11.7837C12.816 10.7503 13.3327 9.48921 13.3327 8.00033C13.3327 6.51144 12.816 5.25033 11.7827 4.21699C10.7493 3.18366 9.48824 2.66699 7.99935 2.66699C6.51046 2.66699 5.24935 3.18366 4.21602 4.21699C3.18268 5.25033 2.66602 6.51144 2.66602 8.00033C2.66602 9.48921 3.18268 10.7503 4.21602 11.7837C5.24935 12.817 6.51046 13.3337 7.99935 13.3337Z" fill="#4F4F4F"/>
</svg>
