<svg width="16" height="16" viewBox="0 0 16 16" fill="none" xmlns="http://www.w3.org/2000/svg">
<path d="M4.16602 9.16699H11.8327V8.16699H4.16602V9.16699ZM4.16602 7.16699H11.8327V6.16699H4.16602V7.16699ZM4.16602 5.16699H11.8327V4.16699H4.16602V5.16699ZM14.3327 14.026L11.9737 11.667H2.87118C2.5344 11.667 2.24935 11.5503 2.01602 11.317C1.78268 11.0837 1.66602 10.7986 1.66602 10.4618V2.87216C1.66602 2.53538 1.78268 2.25033 2.01602 2.01699C2.24935 1.78366 2.5344 1.66699 2.87118 1.66699H13.1275C13.4643 1.66699 13.7493 1.78366 13.9827 2.01699C14.216 2.25033 14.3327 2.53538 14.3327 2.87216V14.026ZM2.87118 10.667H12.3993L13.3327 11.5902V2.87216C13.3327 2.82083 13.3113 2.77383 13.2685 2.73116C13.2259 2.68838 13.1788 2.66699 13.1275 2.66699H2.87118C2.81985 2.66699 2.77285 2.68838 2.73018 2.73116C2.6874 2.77383 2.66602 2.82083 2.66602 2.87216V10.4618C2.66602 10.5132 2.6874 10.5602 2.73018 10.6028C2.77285 10.6456 2.81985 10.667 2.87118 10.667Z" fill="#4F4F4F"/>
</svg>
