<svg width="10" height="10" viewBox="0 0 10 10" fill="none" xmlns="http://www.w3.org/2000/svg">
<path d="M5.56208 0.990347C5.59499 0.93281 5.64535 0.887229 5.70587 0.86019C5.76639 0.833151 5.83393 0.826056 5.89875 0.83993L5.95167 0.85118C6.17211 0.898401 6.38022 0.991264 6.5626 1.12379C6.74497 1.25631 6.89758 1.42556 7.01058 1.62064C7.12358 1.81572 7.19448 2.03229 7.21871 2.25643C7.24294 2.48057 7.21996 2.7073 7.15125 2.92201L6.88625 3.74951H7.36C8.46208 3.74951 9.24042 4.8291 8.89167 5.87451L8.24208 7.82368C8.15219 8.09328 7.97976 8.32776 7.74922 8.49392C7.51867 8.66008 7.24169 8.7495 6.9575 8.74951H4.75375C4.32493 8.74959 3.90904 8.60268 3.57542 8.33326C3.51623 8.45785 3.42291 8.56309 3.30631 8.63677C3.18971 8.71044 3.0546 8.74954 2.91667 8.74951H1.97917C1.78578 8.74951 1.60031 8.67269 1.46357 8.53594C1.32682 8.3992 1.25 8.21373 1.25 8.02035V4.47868C1.25 4.07618 1.57667 3.74951 1.97917 3.74951H3.925C3.94336 3.74951 3.96139 3.74465 3.97727 3.73543C3.99315 3.72621 4.00631 3.71296 4.01542 3.69701L5.56208 0.990347ZM3.64583 7.56618L3.93042 7.81535C4.15835 8.01473 4.45092 8.12459 4.75375 8.12451H6.9575C7.11055 8.12448 7.2597 8.0763 7.38384 7.98679C7.50798 7.89727 7.6008 7.77097 7.64917 7.62576L8.29875 5.67701C8.34833 5.52826 8.36185 5.36986 8.33821 5.21486C8.31456 5.05986 8.25442 4.91269 8.16275 4.78549C8.07107 4.65829 7.95048 4.5547 7.81091 4.48324C7.67134 4.41179 7.51679 4.37452 7.36 4.37451H6.45833C6.40913 4.3745 6.36062 4.36287 6.31676 4.34056C6.27289 4.31826 6.23492 4.28591 6.20593 4.24615C6.17693 4.2064 6.15773 4.16035 6.1499 4.11178C6.14206 4.0632 6.14581 4.01345 6.16083 3.9666L6.55583 2.7316C6.63206 2.49364 6.61545 2.23565 6.50934 2.00944C6.40323 1.78322 6.21546 1.60552 5.98375 1.51201L4.55792 4.00701C4.49417 4.11862 4.40205 4.21138 4.29091 4.27592C4.17976 4.34046 4.05353 4.37447 3.925 4.37451H3.64583V7.56618ZM3.02083 4.37451H1.97917C1.95154 4.37451 1.92504 4.38549 1.90551 4.40502C1.88597 4.42456 1.875 4.45105 1.875 4.47868V8.02035C1.875 8.07785 1.92167 8.12451 1.97917 8.12451H2.91667C2.94429 8.12451 2.97079 8.11354 2.99032 8.094C3.00986 8.07447 3.02083 8.04797 3.02083 8.02035V4.37451Z" fill="#CF3131"/>
</svg>
