<svg width="11" height="13" viewBox="0 0 11 13" fill="none" xmlns="http://www.w3.org/2000/svg">
<path d="M2.82683 7.20517H3.55L6.15 4.59483L5.43717 3.882L2.82683 6.482V7.20517ZM6.63333 4.1115L7.0615 3.68333C7.1085 3.63633 7.132 3.58656 7.132 3.534C7.132 3.48144 7.1085 3.43167 7.0615 3.38467L6.64733 2.9705C6.60033 2.9235 6.55056 2.9 6.498 2.9C6.44545 2.9 6.39567 2.9235 6.34867 2.9705L5.9205 3.39867L6.63333 4.1115ZM5.032 11.3423C6.33622 10.1748 7.33428 9.05489 8.02617 7.98267C8.71806 6.91044 9.064 5.97133 9.064 5.16533C9.064 3.95 8.67789 2.95089 7.90567 2.168C7.13344 1.38511 6.17556 0.993667 5.032 0.993667C3.88844 0.993667 2.93056 1.38511 2.15833 2.168C1.38611 2.95089 1 3.95 1 5.16533C1 5.97133 1.34594 6.91044 2.03783 7.98267C2.72972 9.05489 3.72778 10.1748 5.032 11.3423ZM5.032 12.673C3.35422 11.2192 2.09611 9.86628 1.25767 8.61417C0.419222 7.36194 0 6.21233 0 5.16533C0 3.62689 0.497611 2.38139 1.49283 1.42883C2.48817 0.476278 3.66789 0 5.032 0C6.39611 0 7.57583 0.476278 8.57117 1.42883C9.56639 2.38139 10.064 3.62689 10.064 5.16533C10.064 6.21233 9.64478 7.36194 8.80633 8.61417C7.96789 9.86628 6.70978 11.2192 5.032 12.673Z" fill="#4F4F4F"/>
</svg>
