<svg width="16" height="16" viewBox="0 0 16 16" fill="none" xmlns="http://www.w3.org/2000/svg">
<path d="M3.53915 13.6663C3.20237 13.6663 2.91732 13.5497 2.68398 13.3163C2.45065 13.083 2.33398 12.798 2.33398 12.4612V3.53817C2.33398 3.2014 2.45065 2.91634 2.68398 2.68301C2.91732 2.44967 3.20237 2.33301 3.53915 2.33301H8.00698V3.33301H3.53915C3.48782 3.33301 3.44082 3.3544 3.39815 3.39717C3.35537 3.43984 3.33398 3.48684 3.33398 3.53817V12.4612C3.33398 12.5125 3.35537 12.5595 3.39815 12.6022C3.44082 12.645 3.48782 12.6663 3.53915 12.6663H8.00698V13.6663H3.53915ZM10.8211 10.8458L10.1288 10.1227L11.752 8.49967H6.06482V7.49967H11.752L10.1288 5.87667L10.8211 5.15351L13.6673 7.99967L10.8211 10.8458Z" fill="#4F4F4F"/>
</svg>
