<svg width="10" height="10" viewBox="0 0 10 10" fill="none" xmlns="http://www.w3.org/2000/svg">
<path d="M4.99967 3.33366H1.66634C1.44533 3.33366 1.23337 3.42146 1.07709 3.57774C0.920805 3.73402 0.833008 3.94598 0.833008 4.16699V5.83366C0.833008 6.05467 0.920805 6.26663 1.07709 6.42291C1.23337 6.5792 1.44533 6.66699 1.66634 6.66699H2.08301V8.33366C2.08301 8.44417 2.12691 8.55015 2.20505 8.62829C2.28319 8.70643 2.38917 8.75033 2.49967 8.75033H3.33301C3.44351 8.75033 3.5495 8.70643 3.62764 8.62829C3.70578 8.55015 3.74967 8.44417 3.74967 8.33366V6.66699H4.99967L7.08301 8.33366V1.66699L4.99967 3.33366ZM6.24967 6.50033L5.41634 5.83366H1.66634V4.16699H5.41634L6.24967 3.50033V6.50033ZM8.95801 5.00033C8.95801 5.71283 8.55801 6.35866 7.91634 6.66699V3.33366C8.55384 3.64616 8.95801 4.29199 8.95801 5.00033Z" fill="#CF3131"/>
</svg>
