<svg width="16" height="16" viewBox="0 0 16 16" fill="none" xmlns="http://www.w3.org/2000/svg">
<path d="M12.6208 13.3346C11.4969 13.3346 10.3448 13.0532 9.16449 12.4905C7.98416 11.9276 6.88544 11.1376 5.86833 10.1205C4.85977 9.10347 4.07405 8.00691 3.51116 6.8308C2.94838 5.65469 2.66699 4.50469 2.66699 3.3808C2.66699 3.1808 2.73366 3.01197 2.86699 2.8743C3.00033 2.73675 3.16699 2.66797 3.36699 2.66797H5.01566C5.19688 2.66797 5.35499 2.72502 5.48999 2.83914C5.6251 2.95325 5.7166 3.09964 5.76449 3.2783L6.09516 4.86797C6.12594 5.0543 6.12038 5.21714 6.07849 5.35647C6.0366 5.4958 5.96266 5.60991 5.85666 5.6988L4.39399 7.0628C4.66744 7.55936 4.96977 8.02069 5.30099 8.4468C5.63221 8.87291 5.98544 9.27652 6.36066 9.65764C6.74777 10.0449 7.16444 10.4049 7.61066 10.7378C8.05677 11.0707 8.54649 11.385 9.07983 11.6808L10.5055 10.2295C10.614 10.1124 10.736 10.0352 10.8715 9.99814C11.0069 9.96091 11.1567 9.95341 11.3208 9.97564L12.7233 10.2628C12.9045 10.3072 13.0516 10.3985 13.1645 10.5366C13.2773 10.6746 13.3337 10.833 13.3337 11.0116V12.6346C13.3337 12.8346 13.2649 13.0013 13.1273 13.1346C12.9897 13.268 12.8208 13.3346 12.6208 13.3346Z" fill="#1D653D"/>
</svg>
