<svg width="16" height="16" viewBox="0 0 16 16" fill="none" xmlns="http://www.w3.org/2000/svg">
<path d="M8.00065 11.1407C8.15321 11.1407 8.2811 11.0891 8.38432 10.9858C8.48754 10.8826 8.53915 10.7547 8.53915 10.6022C8.53915 10.4496 8.48754 10.3217 8.38432 10.2185C8.2811 10.1154 8.15321 10.0638 8.00065 10.0638C7.84809 10.0638 7.72021 10.1154 7.61698 10.2185C7.51376 10.3217 7.46215 10.4496 7.46215 10.6022C7.46215 10.7547 7.51376 10.8826 7.61698 10.9858C7.72021 11.0891 7.84809 11.1407 8.00065 11.1407ZM7.50065 8.82017H8.50065V4.79451H7.50065V8.82017ZM5.64165 13.6663L2.33398 10.3617V5.64067L5.63865 2.33301H10.3597L13.6673 5.63767V10.3587L10.3626 13.6663H5.64165ZM6.06732 12.6663H9.93398L12.6673 9.93301V6.06634L9.93398 3.33301H6.06732L3.33398 6.06634V9.93301L6.06732 12.6663Z" fill="#4F4F4F"/>
</svg>
