<svg width="16" height="16" viewBox="0 0 16 16" fill="currentColor" xmlns="http://www.w3.org/2000/svg">
<path d="M11.333 14.6673C10.7775 14.6673 10.3052 14.4729 9.91634 14.084C9.52745 13.6951 9.33301 13.2229 9.33301 12.6673C9.33301 12.6007 9.34967 12.4451 9.38301 12.2007L4.69967 9.46732C4.5219 9.63398 4.31634 9.76465 4.08301 9.85932C3.84967 9.95398 3.59967 10.0011 3.33301 10.0007C2.77745 10.0007 2.30523 9.80621 1.91634 9.41732C1.52745 9.02843 1.33301 8.55621 1.33301 8.00065C1.33301 7.4451 1.52745 6.97287 1.91634 6.58398C2.30523 6.1951 2.77745 6.00065 3.33301 6.00065C3.59967 6.00065 3.84967 6.04798 4.08301 6.14265C4.31634 6.23732 4.5219 6.36776 4.69967 6.53398L9.38301 3.80065C9.36079 3.72287 9.34701 3.64798 9.34167 3.57598C9.33634 3.50398 9.33345 3.42332 9.33301 3.33398C9.33301 2.77843 9.52745 2.30621 9.91634 1.91732C10.3052 1.52843 10.7775 1.33398 11.333 1.33398C11.8886 1.33398 12.3608 1.52843 12.7497 1.91732C13.1386 2.30621 13.333 2.77843 13.333 3.33398C13.333 3.88954 13.1386 4.36176 12.7497 4.75065C12.3608 5.13954 11.8886 5.33398 11.333 5.33398C11.0663 5.33398 10.8163 5.28665 10.583 5.19198C10.3497 5.09732 10.1441 4.96687 9.96634 4.80065L5.28301 7.53398C5.30523 7.61176 5.31923 7.68687 5.32501 7.75932C5.33079 7.83176 5.33345 7.91221 5.33301 8.00065C5.33256 8.0891 5.3299 8.16976 5.32501 8.24265C5.32012 8.31554 5.30612 8.39043 5.28301 8.46732L9.96634 11.2007C10.1441 11.034 10.3497 10.9035 10.583 10.8093C10.8163 10.7151 11.0663 10.6678 11.333 10.6673C11.8886 10.6673 12.3608 10.8618 12.7497 11.2507C13.1386 11.6395 13.333 12.1118 13.333 12.6673C13.333 13.2229 13.1386 13.6951 12.7497 14.084C12.3608 14.4729 11.8886 14.6673 11.333 14.6673Z" fill="currentColor"/>
</svg>
