<svg width="16" height="16" viewBox="0 0 16 16" fill="none" xmlns="http://www.w3.org/2000/svg">
<path d="M7.99961 2.39961C7.68135 2.39961 7.37612 2.52604 7.15108 2.75108C6.92604 2.97613 6.79961 3.28135 6.79961 3.59961C6.79961 3.91787 6.92604 4.22309 7.15108 4.44814C7.37612 4.67318 7.68135 4.79961 7.99961 4.79961C8.31787 4.79961 8.62309 4.67318 8.84814 4.44814C9.07318 4.22309 9.19961 3.91787 9.19961 3.59961C9.19961 3.28135 9.07318 2.97613 8.84814 2.75108C8.62309 2.52604 8.31787 2.39961 7.99961 2.39961ZM5.99961 3.59961C5.99961 3.06918 6.21032 2.56047 6.5854 2.1854C6.96047 1.81032 7.46918 1.59961 7.99961 1.59961C8.53004 1.59961 9.03875 1.81032 9.41382 2.1854C9.7889 2.56047 9.99961 3.06918 9.99961 3.59961C9.99961 4.13004 9.7889 4.63875 9.41382 5.01382C9.03875 5.3889 8.53004 5.59961 7.99961 5.59961C7.46918 5.59961 6.96047 5.3889 6.5854 5.01382C6.21032 4.63875 5.99961 4.13004 5.99961 3.59961ZM12.3996 3.19961C12.1874 3.19961 11.984 3.2839 11.8339 3.43392C11.6839 3.58395 11.5996 3.78744 11.5996 3.99961C11.5996 4.21178 11.6839 4.41527 11.8339 4.56529C11.984 4.71532 12.1874 4.79961 12.3996 4.79961C12.6118 4.79961 12.8153 4.71532 12.9653 4.56529C13.1153 4.41527 13.1996 4.21178 13.1996 3.99961C13.1996 3.78744 13.1153 3.58395 12.9653 3.43392C12.8153 3.2839 12.6118 3.19961 12.3996 3.19961ZM10.7996 3.99961C10.7996 3.57526 10.9682 3.1683 11.2682 2.86824C11.5683 2.56818 11.9753 2.39961 12.3996 2.39961C12.824 2.39961 13.2309 2.56818 13.531 2.86824C13.831 3.1683 13.9996 3.57526 13.9996 3.99961C13.9996 4.42396 13.831 4.83092 13.531 5.13098C13.2309 5.43104 12.824 5.59961 12.3996 5.59961C11.9753 5.59961 11.5683 5.43104 11.2682 5.13098C10.9682 4.83092 10.7996 4.42396 10.7996 3.99961ZM2.79961 3.99961C2.79961 3.78744 2.88389 3.58395 3.03392 3.43392C3.18395 3.2839 3.38744 3.19961 3.59961 3.19961C3.81178 3.19961 4.01527 3.2839 4.16529 3.43392C4.31532 3.58395 4.39961 3.78744 4.39961 3.99961C4.39961 4.21178 4.31532 4.41527 4.16529 4.56529C4.01527 4.71532 3.81178 4.79961 3.59961 4.79961C3.38744 4.79961 3.18395 4.71532 3.03392 4.56529C2.88389 4.41527 2.79961 4.21178 2.79961 3.99961ZM3.59961 2.39961C3.17526 2.39961 2.7683 2.56818 2.46824 2.86824C2.16818 3.1683 1.99961 3.57526 1.99961 3.99961C1.99961 4.42396 2.16818 4.83092 2.46824 5.13098C2.7683 5.43104 3.17526 5.59961 3.59961 5.59961C4.02396 5.59961 4.43092 5.43104 4.73098 5.13098C5.03104 4.83092 5.19961 4.42396 5.19961 3.99961C5.19961 3.57526 5.03104 3.1683 4.73098 2.86824C4.43092 2.56818 4.02396 2.39961 3.59961 2.39961ZM4.07961 11.998L3.99961 11.9996C3.57526 11.9996 3.1683 11.831 2.86824 11.531C2.56818 11.2309 2.39961 10.824 2.39961 10.3996V7.39961C2.39961 7.34657 2.42068 7.2957 2.45819 7.25819C2.4957 7.22068 2.54657 7.19961 2.59961 7.19961H4.01081C4.04281 6.90601 4.14681 6.63321 4.30281 6.39961H2.59961C2.04761 6.39961 1.59961 6.84761 1.59961 7.39961V10.3996C1.59957 10.7421 1.67284 11.0806 1.81449 11.3925C1.95614 11.7043 2.16289 11.9822 2.42085 12.2075C2.67881 12.4328 2.98201 12.6003 3.31006 12.6987C3.63812 12.7971 3.98343 12.8241 4.32281 12.778C4.21533 12.527 4.13384 12.2656 4.07961 11.998ZM11.6764 12.778C11.782 12.7924 11.8897 12.7996 11.9996 12.7996C12.6361 12.7996 13.2466 12.5468 13.6967 12.0967C14.1468 11.6466 14.3996 11.0361 14.3996 10.3996V7.39961C14.3996 6.84761 13.9516 6.39961 13.3996 6.39961H11.6964C11.8532 6.63321 11.9564 6.90601 11.9884 7.19961H13.3996C13.4527 7.19961 13.5035 7.22068 13.541 7.25819C13.5785 7.2957 13.5996 7.34657 13.5996 7.39961V10.3996C13.5997 10.6165 13.5556 10.8311 13.4702 11.0305C13.3847 11.2298 13.2596 11.4097 13.1025 11.5592C12.9453 11.7087 12.7595 11.8247 12.5561 11.9001C12.3528 11.9755 12.1362 12.0089 11.9196 11.998C11.8654 12.2656 11.7839 12.527 11.6764 12.778ZM5.79961 6.39961C5.24761 6.39961 4.79961 6.84761 4.79961 7.39961V11.1996C4.79961 12.0483 5.13675 12.8622 5.73687 13.4624C6.33698 14.0625 7.15092 14.3996 7.99961 14.3996C8.8483 14.3996 9.66224 14.0625 10.2624 13.4624C10.8625 12.8622 11.1996 12.0483 11.1996 11.1996V7.39961C11.1996 6.84761 10.7516 6.39961 10.1996 6.39961H5.79961ZM5.59961 7.39961C5.59961 7.34657 5.62068 7.2957 5.65819 7.25819C5.6957 7.22068 5.74657 7.19961 5.79961 7.19961H10.1996C10.2527 7.19961 10.3035 7.22068 10.341 7.25819C10.3785 7.2957 10.3996 7.34657 10.3996 7.39961V11.1996C10.3996 11.8361 10.1468 12.4466 9.69667 12.8967C9.24658 13.3468 8.63613 13.5996 7.99961 13.5996C7.36309 13.5996 6.75264 13.3468 6.30255 12.8967C5.85247 12.4466 5.59961 11.8361 5.59961 11.1996V7.39961Z" fill="#1E1E1E"/>
</svg>
