<svg width="16" height="16" viewBox="0 0 16 16" fill="none" xmlns="http://www.w3.org/2000/svg">
<path d="M8.00065 12.3586C7.81732 12.3586 7.66037 12.2933 7.52982 12.1628C7.39926 12.0322 7.33398 11.8753 7.33398 11.692C7.33398 11.5086 7.39926 11.3517 7.52982 11.2211C7.66037 11.0906 7.81732 11.0253 8.00065 11.0253C8.18398 11.0253 8.34093 11.0906 8.47148 11.2211C8.60204 11.3517 8.66732 11.5086 8.66732 11.692C8.66732 11.8753 8.60204 12.0322 8.47148 12.1628C8.34093 12.2933 8.18398 12.3586 8.00065 12.3586ZM8.00065 8.66629C7.81732 8.66629 7.66037 8.60101 7.52982 8.47046C7.39926 8.3399 7.33398 8.18296 7.33398 7.99962C7.33398 7.81629 7.39926 7.65935 7.52982 7.52879C7.66037 7.39824 7.81732 7.33296 8.00065 7.33296C8.18398 7.33296 8.34093 7.39824 8.47148 7.52879C8.60204 7.65935 8.66732 7.81629 8.66732 7.99962C8.66732 8.18296 8.60204 8.3399 8.47148 8.47046C8.34093 8.60101 8.18398 8.66629 8.00065 8.66629ZM8.00065 4.97396C7.81732 4.97396 7.66037 4.90868 7.52982 4.77813C7.39926 4.64757 7.33398 4.49063 7.33398 4.30729C7.33398 4.12396 7.39926 3.96701 7.52982 3.83646C7.66037 3.7059 7.81732 3.64062 8.00065 3.64062C8.18398 3.64062 8.34093 3.7059 8.47148 3.83646C8.60204 3.96701 8.66732 4.12396 8.66732 4.30729C8.66732 4.49063 8.60204 4.64757 8.47148 4.77813C8.34093 4.90868 8.18398 4.97396 8.00065 4.97396Z" fill="#4F4F4F"/>
</svg>
