<svg width="10" height="10" viewBox="0 0 10 10" fill="none" xmlns="http://www.w3.org/2000/svg">
<path d="M4.99967 0.833008C7.30092 0.833008 9.16634 2.69842 9.16634 4.99967C9.16634 7.30092 7.30092 9.16634 4.99967 9.16634C2.69842 9.16634 0.833008 7.30092 0.833008 4.99967C0.833008 2.69842 2.69842 0.833008 4.99967 0.833008ZM4.99967 1.66634C4.11562 1.66634 3.26777 2.01753 2.64265 2.64265C2.01753 3.26777 1.66634 4.11562 1.66634 4.99967C1.66634 5.88373 2.01753 6.73158 2.64265 7.3567C3.26777 7.98182 4.11562 8.33301 4.99967 8.33301C5.88373 8.33301 6.73158 7.98182 7.3567 7.3567C7.98182 6.73158 8.33301 5.88373 8.33301 4.99967C8.33301 4.11562 7.98182 3.26777 7.3567 2.64265C6.73158 2.01753 5.88373 1.66634 4.99967 1.66634ZM4.99967 2.49967C5.10173 2.49969 5.20023 2.53716 5.2765 2.60497C5.35276 2.67279 5.40148 2.76624 5.41342 2.86759L5.41634 2.91634V4.82717L6.54426 5.95509C6.61899 6.03007 6.66237 6.13069 6.6656 6.2365C6.66883 6.34231 6.63167 6.44539 6.56165 6.52479C6.49164 6.60419 6.39403 6.65397 6.28864 6.66401C6.18326 6.67405 6.078 6.6436 5.99426 6.57884L5.95509 6.54426L4.70509 5.29426C4.64033 5.22944 4.59874 5.14509 4.58676 5.05426L4.58301 4.99967V2.91634C4.58301 2.80583 4.62691 2.69985 4.70505 2.62171C4.78319 2.54357 4.88917 2.49967 4.99967 2.49967Z" fill="#CF3131"/>
</svg>
