<svg width="16" height="16" viewBox="0 0 16 16" fill="none" xmlns="http://www.w3.org/2000/svg">
<g clip-path="url(#clip0_879_27152)">
<path d="M13.2 10.5C11.985 10.5 11 11.7313 11 13.25C11 14.7688 11.985 16 13.2 16C14.415 16 15.4 14.7688 15.4 13.25C15.4 11.7313 14.415 10.5 13.2 10.5ZM13.2 14C12.8692 14 12.6 13.6634 12.6 13.25C12.6 12.8366 12.8692 12.5 13.2 12.5C13.5307 12.5 13.8 12.8366 13.8 13.25C13.8 13.6634 13.5307 14 13.2 14ZM15.2 5H13.6V3.74375C13.6 3.3025 13.7175 2.87625 13.9288 2.53C14.0392 2.34875 14.0175 2.09063 13.8958 1.92094L13.355 1.16563C13.1885 0.932813 12.897 0.949376 12.7375 1.19C12.2645 1.90313 12 2.80656 12 3.74375V5H9.44175L8.0395 0.910626C7.94738 0.64026 7.79366 0.409753 7.59748 0.247826C7.4013 0.0858991 7.17134 -0.000289038 6.93625 7.28253e-07H3.6C2.93825 7.28253e-07 2.4 0.672813 2.4 1.5V6.07875C2.18425 5.86844 1.876 5.87688 1.67775 6.12469L0.9 7.09688C0.68525 7.36531 0.68525 7.80063 0.9 8.06906L1.0265 8.22719C0.90175 8.51656 0.8025 8.81531 0.72875 9.12469H0.55C0.24625 9.12469 0 9.4325 0 9.81219V11.1872C0 11.5669 0.24625 11.8747 0.55 11.8747H0.7285C0.8025 12.1844 0.9015 12.4828 1.02625 12.7725L0.89975 12.9306C0.685 13.1991 0.685 13.6344 0.89975 13.9028L1.6775 14.875C1.89225 15.1434 2.2405 15.1434 2.45525 14.875L2.58175 14.7169C2.81325 14.8728 3.05225 14.9969 3.29975 15.0891V15.3125C3.29975 15.6922 3.546 16 3.84975 16H4.94975C5.2535 16 5.49975 15.6922 5.49975 15.3125V15.0894C5.74725 14.9972 5.98625 14.8731 6.21775 14.7172L6.34425 14.8753C6.559 15.1438 6.90725 15.1438 7.122 14.8753L7.89975 13.9031C8.1145 13.6347 8.1145 13.1994 7.89975 12.9309L7.77325 12.7728C7.898 12.4834 7.99725 12.1847 8.071 11.8753H8.25C8.55375 11.8753 8.8 11.5675 8.8 11.1878V11.0003H10.8135C11.3612 10.0944 12.2215 9.50031 13.2 9.50031C13.666 9.50031 14.1017 9.64438 14.495 9.88156L15.7655 8.29344C15.9155 8.10594 15.9997 7.85156 15.9997 7.58625V6C16 5.44781 15.6417 5 15.2 5ZM4.4 13C3.2955 13 2.4 11.8806 2.4 10.5C2.4 9.11938 3.2955 8 4.4 8C5.5045 8 6.4 9.11938 6.4 10.5C6.4 11.8806 5.5045 13 4.4 13ZM4.95 5H4V2H6.67225L7.701 5H4.95Z" fill="white"/>
</g>
<defs>
<clipPath id="clip0_879_27152">
<rect width="16" height="16" fill="white"/>
</clipPath>
</defs>
</svg>
