<svg width="16" height="16" viewBox="0 0 16 16" fill="none" xmlns="http://www.w3.org/2000/svg">
<path d="M6.66602 7.33398L13.9993 7.93398C14.1643 7.96642 14.311 8.06002 14.4099 8.19601C14.5088 8.33201 14.5527 8.50035 14.5327 8.66732L14.0893 11.4393C14.0643 11.5959 13.9842 11.7385 13.8635 11.8414C13.7428 11.9443 13.5893 12.0007 13.4307 12.0007H13.3327M10.666 12.0007H7.33268" stroke="currentColor" stroke-width="1.33333" stroke-linecap="round" stroke-linejoin="round"/>
<path d="M12 3.33366C11.8232 3.33366 11.6536 3.4039 11.5286 3.52892C11.4036 3.65395 11.3333 3.82351 11.3333 4.00033V7.71566M2 2.66699H7.41933C7.58026 2.66708 7.73572 2.72538 7.85702 2.83112C7.97833 2.93687 8.05729 3.08292 8.07933 3.24233L8.66667 7.49766M2.66667 7.33366V2.66699M4.66667 10.0003H4.67333M5.33333 6.73366V2.66699" stroke="currentColor" stroke-width="1.33333" stroke-linecap="round" stroke-linejoin="round"/>
<path d="M11.9993 13.3337C12.7357 13.3337 13.3327 12.7367 13.3327 12.0003C13.3327 11.2639 12.7357 10.667 11.9993 10.667C11.263 10.667 10.666 11.2639 10.666 12.0003C10.666 12.7367 11.263 13.3337 11.9993 13.3337Z" stroke="currentColor" stroke-width="1.33333" stroke-linecap="round" stroke-linejoin="round"/>
<path d="M4.66634 13.3337C6.50729 13.3337 7.99967 11.8413 7.99967 10.0003C7.99967 8.15938 6.50729 6.66699 4.66634 6.66699C2.82539 6.66699 1.33301 8.15938 1.33301 10.0003C1.33301 11.8413 2.82539 13.3337 4.66634 13.3337Z" stroke="currentColor" stroke-width="1.33333" stroke-linecap="round" stroke-linejoin="round"/>
</svg>
