<svg width="20" height="20" viewBox="0 0 20 20" fill="currentColor" xmlns="http://www.w3.org/2000/svg">
<path d="M5.01884 14.4099C5.72717 13.8843 6.49884 13.4693 7.33384 13.1647C8.1687 12.8602 9.05731 12.708 9.99968 12.708C10.942 12.708 11.8306 12.8602 12.6655 13.1647C13.5005 13.4693 14.2722 13.8843 14.9805 14.4099C15.4986 13.8404 15.9091 13.1813 16.212 12.4324C16.5149 11.6835 16.6663 10.8726 16.6663 9.99968C16.6663 8.15245 16.017 6.57954 14.7184 5.28092C13.4198 3.98231 11.8469 3.33301 9.99968 3.33301C8.15245 3.33301 6.57954 3.98231 5.28092 5.28092C3.98231 6.57954 3.33301 8.15245 3.33301 9.99968C3.33301 10.8726 3.48447 11.6835 3.78738 12.4324C4.0903 13.1813 4.50079 13.8404 5.01884 14.4099ZM8.07509 9.84093C7.55259 9.31856 7.29134 8.67704 7.29134 7.91634C7.29134 7.15565 7.55259 6.51412 8.07509 5.99176C8.59745 5.46926 9.23898 5.20801 9.99968 5.20801C10.7604 5.20801 11.4019 5.46926 11.9243 5.99176C12.4468 6.51412 12.708 7.15565 12.708 7.91634C12.708 8.67704 12.4468 9.31856 11.9243 9.84093C11.4019 10.3634 10.7604 10.6247 9.99968 10.6247C9.23898 10.6247 8.59745 10.3634 8.07509 9.84093ZM9.99968 17.9163C8.90037 17.9163 7.86912 17.7096 6.90593 17.2961C5.94273 16.8827 5.10488 16.3196 4.39238 15.607C3.67974 14.8945 3.11669 14.0566 2.70322 13.0934C2.28974 12.1302 2.08301 11.099 2.08301 9.99968C2.08301 8.90037 2.28974 7.86912 2.70322 6.90593C3.11669 5.94273 3.67974 5.10488 4.39238 4.39238C5.10488 3.67974 5.94273 3.11669 6.90593 2.70322C7.86912 2.28974 8.90037 2.08301 9.99968 2.08301C11.099 2.08301 12.1302 2.28974 13.0934 2.70322C14.0566 3.11669 14.8945 3.67974 15.607 4.39238C16.3196 5.10488 16.8827 5.94273 17.2961 6.90593C17.7096 7.86912 17.9163 8.90037 17.9163 9.99968C17.9163 11.099 17.7096 12.1302 17.2961 13.0934C16.8827 14.0566 16.3196 14.8945 15.607 15.607C14.8945 16.3196 14.0566 16.8827 13.0934 17.2961C12.1302 17.7096 11.099 17.9163 9.99968 17.9163Z" fill="currentColor"/>
</svg>
