<svg width="24" height="17" viewBox="0 0 24 17" fill="none" xmlns="http://www.w3.org/2000/svg">
<g clip-path="url(#clip0_712_8694)">
<path d="M23.4673 2.65153C23.3297 2.13903 23.0612 1.6718 22.6886 1.29637C22.3161 0.920939 21.8524 0.650402 21.3437 0.5117C19.4817 0 11.9874 0 11.9874 0C11.9874 0 4.49284 0.0154888 2.63077 0.527189C2.12214 0.665899 1.65844 0.93645 1.28586 1.3119C0.913272 1.68735 0.644804 2.1546 0.507185 2.66711C-0.0560488 6.00081 -0.274537 11.0806 0.522651 14.2809C0.660284 14.7934 0.928758 15.2607 1.30134 15.6361C1.67392 16.0115 2.13761 16.2821 2.64624 16.4208C4.50831 16.9325 12.0027 16.9325 12.0027 16.9325C12.0027 16.9325 19.497 16.9325 21.359 16.4208C21.8677 16.2821 22.3314 16.0116 22.704 15.6361C23.0766 15.2607 23.3451 14.7935 23.4827 14.2809C24.0768 10.9425 24.2598 5.86585 23.4673 2.65153Z" fill="#FF0000"/>
<path d="M9.60156 12.0946L15.8186 8.46626L9.60156 4.83789V12.0946Z" fill="white"/>
</g>
<defs>
<clipPath id="clip0_712_8694">
<rect width="24" height="17" fill="white"/>
</clipPath>
</defs>
</svg>
